<svg xmlns="http://www.w3.org/2000/svg" viewBox="0 0 64 64" width="64" height="64">
  <rect width="64" height="64" rx="14" fill="#dc2626"/>
  <!-- Cuerpo del carrito de juguete -->
  <g fill="#ffffff">
    <!-- Carrocería -->
    <path d="M10 38c0-1.7 1.3-3 3-3h3l4-7c.7-1.2 2-2 3.4-2h13.5c1.3 0 2.6.7 3.3 1.8L47 32l4 1.2c2 .6 3.4 2.5 3.4 4.6V40c0 1.1-.9 2-2 2h-3.2a6 6 0 0 1-11.6 0H26.4a6 6 0 0 1-11.6 0H12a2 2 0 0 1-2-2v-2z"/>
  </g>
  <!-- Ventanas -->
  <path d="M24.5 28.5 21.8 33h9.4v-4.5h-6.7zM34 28.5V33h9l-3-4.1a1.6 1.6 0 0 0-1.3-.4H34z" fill="#dc2626"/>
  <!-- Ruedas -->
  <circle cx="20.6" cy="42.5" r="4.2" fill="#1e293b"/>
  <circle cx="20.6" cy="42.5" r="1.6" fill="#ffffff"/>
  <circle cx="43.4" cy="42.5" r="4.2" fill="#1e293b"/>
  <circle cx="43.4" cy="42.5" r="1.6" fill="#ffffff"/>
</svg>
